<svg version="1.1" viewBox="0.0 0.0 600.0 371.0" fill="none" stroke="none" stroke-linecap="square" stroke-miterlimit="10" width="600" height="371" xmlns:xlink="http://www.w3.org/1999/xlink" xmlns="http://www.w3.org/2000/svg"><path fill="#ffffff" d="M0 0L600.0 0L600.0 371.0L0 371.0L0 0Z" fill-rule="nonzero"/><path stroke="#333333" stroke-width="1.0" stroke-linecap="butt" d="M56.5 332.5L581.5 332.5" fill-rule="nonzero"/><path stroke="#cccccc" stroke-width="1.0" stroke-linecap="butt" d="M56.5 271.5L581.5 271.5" fill-rule="nonzero"/><path stroke="#cccccc" stroke-width="1.0" stroke-linecap="butt" d="M56.5 210.5L581.5 210.5" fill-rule="nonzero"/><path stroke="#cccccc" stroke-width="1.0" stroke-linecap="butt" d="M56.5 149.5L581.5 149.5" fill-rule="nonzero"/><path stroke="#cccccc" stroke-width="1.0" stroke-linecap="butt" d="M56.5 88.5L581.5 88.5" fill-rule="nonzero"/><clipPath id="id_0"><path d="M56.55 88.28333L581.45 88.28333L581.45 332.45L56.55 332.45L56.55 88.28333Z" clip-rule="nonzero"/></clipPath><path stroke="#000000" stroke-width="2.0" stroke-linecap="butt" stroke-opacity="0.0" clip-path="url(#id_0)" d="M177.0 332.0L99.0 332.0L99.0 332.0L177.0 332.0Z" fill-rule="nonzero"/><path fill="#34a853" clip-path="url(#id_0)" d="M177.0 332.0L99.0 332.0L99.0 332.0L177.0 332.0Z" fill-rule="nonzero"/><path stroke="#000000" stroke-width="2.0" stroke-linecap="butt" stroke-opacity="0.0" clip-path="url(#id_0)" d="M298.0 332.0L220.0 332.0L220.0 332.0L298.0 332.0Z" fill-rule="nonzero"/><path fill="#34a853" clip-path="url(#id_0)" d="M298.0 332.0L220.0 332.0L220.0 332.0L298.0 332.0Z" fill-rule="nonzero"/><path stroke="#000000" stroke-width="2.0" stroke-linecap="butt" stroke-opacity="0.0" clip-path="url(#id_0)" d="M418.0 332.0L340.0 332.0L340.0 332.0L418.0 332.0Z" fill-rule="nonzero"/><path fill="#34a853" clip-path="url(#id_0)" d="M418.0 332.0L340.0 332.0L340.0 332.0L418.0 332.0Z" fill-rule="nonzero"/><path stroke="#000000" stroke-width="2.0" stroke-linecap="butt" stroke-opacity="0.0" clip-path="url(#id_0)" d="M539.0 332.0L461.0 332.0L461.0 149.0L539.0 149.0Z" fill-rule="nonzero"/><path fill="#34a853" clip-path="url(#id_0)" d="M539.0 332.0L461.0 332.0L461.0 149.0L539.0 149.0Z" fill-rule="nonzero"/><path stroke="#000000" stroke-width="2.0" stroke-linecap="butt" stroke-opacity="0.0" clip-path="url(#id_0)" d="M177.0 332.0L99.0 332.0L99.0 149.0L177.0 149.0Z" fill-rule="nonzero"/><path fill="#4285f4" clip-path="url(#id_0)" d="M177.0 332.0L99.0 332.0L99.0 149.0L177.0 149.0Z" fill-rule="nonzero"/><path stroke="#000000" stroke-width="2.0" stroke-linecap="butt" stroke-opacity="0.0" clip-path="url(#id_0)" d="M298.0 332.0L220.0 332.0L220.0 332.0L298.0 332.0Z" fill-rule="nonzero"/><path fill="#4285f4" clip-path="url(#id_0)" d="M298.0 332.0L220.0 332.0L220.0 332.0L298.0 332.0Z" fill-rule="nonzero"/><path stroke="#000000" stroke-width="2.0" stroke-linecap="butt" stroke-opacity="0.0" clip-path="url(#id_0)" d="M418.0 332.0L340.0 332.0L340.0 271.0L418.0 271.0Z" fill-rule="nonzero"/><path fill="#4285f4" clip-path="url(#id_0)" d="M418.0 332.0L340.0 332.0L340.0 271.0L418.0 271.0Z" fill-rule="nonzero"/><path stroke="#000000" stroke-width="2.0" stroke-linecap="butt" stroke-opacity="0.0" clip-path="url(#id_0)" d="M539.0 149.0L461.0 149.0L461.0 113.0L539.0 113.0Z" fill-rule="nonzero"/><path fill="#4285f4" clip-path="url(#id_0)" d="M539.0 149.0L461.0 149.0L461.0 113.0L539.0 113.0Z" fill-rule="nonzero"/><path stroke="#000000" stroke-width="2.0" stroke-linecap="butt" stroke-opacity="0.0" clip-path="url(#id_0)" d="M177.0 149.0L99.0 149.0L99.0 90.0C99.0 88.89543 99.89543 88.0 101.0 88.0L175.0 88.0C176.10457 88.0 177.0 88.89543 177.0 90.0Z" fill-rule="nonzero"/><path fill="#ff6d01" clip-path="url(#id_0)" d="M177.0 149.0L99.0 149.0L99.0 90.0C99.0 88.89543 99.89543 88.0 101.0 88.0L175.0 88.0C176.10457 88.0 177.0 88.89543 177.0 90.0Z" fill-rule="nonzero"/><path stroke="#000000" stroke-width="2.0" stroke-linecap="butt" stroke-opacity="0.0" clip-path="url(#id_0)" d="M298.0 332.0L220.0 332.0L220.0 90.0C220.0 88.89543 220.89543 88.0 222.0 88.0L296.0 88.0C297.10458 88.0 298.0 88.89543 298.0 90.0Z" fill-rule="nonzero"/><path fill="#ff6d01" clip-path="url(#id_0)" d="M298.0 332.0L220.0 332.0L220.0 90.0C220.0 88.89543 220.89543 88.0 222.0 88.0L296.0 88.0C297.10458 88.0 298.0 88.89543 298.0 90.0Z" fill-rule="nonzero"/><path stroke="#000000" stroke-width="2.0" stroke-linecap="butt" stroke-opacity="0.0" clip-path="url(#id_0)" d="M418.0 271.0L340.0 271.0L340.0 90.0C340.0 88.89543 340.89542 88.0 342.0 88.0L416.0 88.0C417.10458 88.0 418.0 88.89543 418.0 90.0Z" fill-rule="nonzero"/><path fill="#ff6d01" clip-path="url(#id_0)" d="M418.0 271.0L340.0 271.0L340.0 90.0C340.0 88.89543 340.89542 88.0 342.0 88.0L416.0 88.0C417.10458 88.0 418.0 88.89543 418.0 90.0Z" fill-rule="nonzero"/><path stroke="#000000" stroke-width="2.0" stroke-linecap="butt" stroke-opacity="0.0" clip-path="url(#id_0)" d="M539.0 113.0L461.0 113.0L461.0 90.0C461.0 88.89543 461.89542 88.0 463.0 88.0L537.0 88.0C538.10455 88.0 539.0 88.89543 539.0 90.0Z" fill-rule="nonzero"/><path fill="#ff6d01" clip-path="url(#id_0)" d="M539.0 113.0L461.0 113.0L461.0 90.0C461.0 88.89543 461.89542 88.0 463.0 88.0L537.0 88.0C538.10455 88.0 539.0 88.89543 539.0 90.0Z" fill-rule="nonzero"/><path fill="#000000" d="M33.05 332.21564Q33.05 330.6844 33.3625 329.7625Q33.675 328.825 34.284374 328.325Q34.909374 327.825 35.846874 327.825Q36.534374 327.825 37.05 328.10626Q37.58125 328.3875 37.925 328.91876Q38.26875 329.4344 38.45625 330.1844Q38.64375 330.9344 38.64375 332.21564Q38.64375 333.73126 38.33125 334.65314Q38.034374 335.575 37.409374 336.09064Q36.8 336.59064 35.846874 336.59064Q34.6125 336.59064 33.89375 335.7Q33.05 334.6375 33.05 332.21564ZM34.128124 332.21564Q34.128124 334.325 34.628124 335.02814Q35.128124 335.73126 35.846874 335.73126Q36.58125 335.73126 37.065624 335.02814Q37.565624 334.325 37.565624 332.21564Q37.565624 330.09064 37.065624 329.40314Q36.58125 328.7 35.83125 328.7Q35.1125 328.7 34.675 329.3094Q34.128124 330.09064 34.128124 332.21564ZM40.253124 329.91876Q40.253124 328.9969 40.70625 328.35626Q41.175 327.71564 42.05 327.71564Q42.8625 327.71564 43.39375 328.29376Q43.925 328.8719 43.925 329.98126Q43.925 331.075 43.378124 331.66876Q42.846874 332.2469 42.065624 332.2469Q41.284374 332.2469 40.76875 331.66876Q40.253124 331.09064 40.253124 329.91876ZM42.08125 328.4344Q41.690624 328.4344 41.425 328.77814Q41.175 329.1219 41.175 330.02814Q41.175 330.85626 41.425 331.2Q41.690624 331.52814 42.08125 331.52814Q42.4875 331.52814 42.7375 331.1844Q43.003124 330.84064 43.003124 329.95Q43.003124 329.10626 42.7375 328.77814Q42.471874 328.4344 42.08125 328.4344ZM42.08125 336.7625L46.784374 327.71564L47.64375 327.71564L42.95625 336.7625L42.08125 336.7625ZM45.8 334.4344Q45.8 333.5125 46.253124 332.8719Q46.721874 332.23126 47.6125 332.23126Q48.425 332.23126 48.95625 332.8094Q49.4875 333.3719 49.4875 334.4969Q49.4875 335.59064 48.940624 336.1844Q48.409374 336.7625 47.6125 336.7625Q46.846874 336.7625 46.315624 336.1844Q45.8 335.60626 45.8 334.4344ZM47.64375 332.95Q47.2375 332.95 46.971874 333.29376Q46.721874 333.6375 46.721874 334.54376Q46.721874 335.35626 46.9875 335.7Q47.253124 336.04376 47.64375 336.04376Q48.034374 336.04376 48.3 335.7Q48.565624 335.35626 48.565624 334.45Q48.565624 333.6219 48.3 333.29376Q48.034374 332.95 47.64375 332.95Z" fill-rule="nonzero"/><path fill="#000000" d="M31.596874 274.3927L31.596874 275.40833L25.909374 275.40833Q25.909374 275.03333 26.034374 274.67395Q26.253124 274.09583 26.721874 273.53333Q27.20625 272.97083 28.1125 272.23645Q29.51875 271.0802 30.003124 270.40833Q30.503124 269.73645 30.503124 269.1427Q30.503124 268.5177 30.05 268.09583Q29.596874 267.65833 28.878124 267.65833Q28.1125 267.65833 27.659374 268.11145Q27.20625 268.56458 27.190624 269.37708L26.1125 269.2677Q26.221874 268.04895 26.940624 267.42395Q27.675 266.78333 28.909374 266.78333Q30.14375 266.78333 30.8625 267.47083Q31.58125 268.15833 31.58125 269.17395Q31.58125 269.68958 31.3625 270.18958Q31.159374 270.67395 30.659374 271.23645Q30.175 271.78333 29.05 272.73645Q28.096874 273.53333 27.815624 273.8302Q27.55 274.11145 27.378124 274.3927L31.596874 274.3927ZM33.05 273.15833L34.159374 273.06458Q34.284374 273.87708 34.721874 274.28333Q35.175 274.68958 35.815624 274.68958Q36.565624 274.68958 37.096874 274.11145Q37.628124 273.53333 37.628124 272.59583Q37.628124 271.68958 37.1125 271.17395Q36.6125 270.6427 35.784374 270.6427Q35.284374 270.6427 34.8625 270.87708Q34.45625 271.11145 34.221874 271.47083L33.2375 271.34583L34.065624 266.93958L38.346874 266.93958L38.346874 267.93958L34.909374 267.93958L34.45625 270.25208Q35.221874 269.7052 36.065624 269.7052Q37.190624 269.7052 37.95625 270.48645Q38.7375 271.2677 38.7375 272.50208Q38.7375 273.65833 38.065624 274.5177Q37.2375 275.54895 35.815624 275.54895Q34.64375 275.54895 33.89375 274.8927Q33.159374 274.23645 33.05 273.15833ZM40.253124 268.87708Q40.253124 267.9552 40.70625 267.31458Q41.175 266.67395 42.05 266.67395Q42.8625 266.67395 43.39375 267.25208Q43.925 267.8302 43.925 268.93958Q43.925 270.03333 43.378124 270.62708Q42.846874 271.2052 42.065624 271.2052Q41.284374 271.2052 40.76875 270.62708Q40.253124 270.04895 40.253124 268.87708ZM42.08125 267.3927Q41.690624 267.3927 41.425 267.73645Q41.175 268.0802 41.175 268.98645Q41.175 269.81458 41.425 270.15833Q41.690624 270.48645 42.08125 270.48645Q42.4875 270.48645 42.7375 270.1427Q43.003124 269.79895 43.003124 268.90833Q43.003124 268.06458 42.7375 267.73645Q42.471874 267.3927 42.08125 267.3927ZM42.08125 275.72083L46.784374 266.67395L47.64375 266.67395L42.95625 275.72083L42.08125 275.72083ZM45.8 273.3927Q45.8 272.47083 46.253124 271.8302Q46.721874 271.18958 47.6125 271.18958Q48.425 271.18958 48.95625 271.7677Q49.4875 272.3302 49.4875 273.4552Q49.4875 274.54895 48.940624 275.1427Q48.409374 275.72083 47.6125 275.72083Q46.846874 275.72083 46.315624 275.1427Q45.8 274.56458 45.8 273.3927ZM47.64375 271.90833Q47.2375 271.90833 46.971874 272.25208Q46.721874 272.59583 46.721874 273.50208Q46.721874 274.31458 46.9875 274.65833Q47.253124 275.00208 47.64375 275.00208Q48.034374 275.00208 48.3 274.65833Q48.565624 274.31458 48.565624 273.40833Q48.565624 272.5802 48.3 272.25208Q48.034374 271.90833 47.64375 271.90833Z" fill-rule="nonzero"/><path fill="#000000" d="M26.05 212.11667L27.159374 212.02292Q27.284374 212.83542 27.721874 213.24167Q28.175 213.64792 28.815624 213.64792Q29.565624 213.64792 30.096874 213.0698Q30.628124 212.49167 30.628124 211.55417Q30.628124 210.64792 30.1125 210.1323Q29.6125 209.60104 28.784374 209.60104Q28.284374 209.60104 27.8625 209.83542Q27.45625 210.0698 27.221874 210.42917L26.2375 210.30417L27.065624 205.89792L31.346874 205.89792L31.346874 206.89792L27.909374 206.89792L27.45625 209.21042Q28.221874 208.66354 29.065624 208.66354Q30.190624 208.66354 30.95625 209.4448Q31.7375 210.22604 31.7375 211.46042Q31.7375 212.61667 31.065624 213.47604Q30.2375 214.5073 28.815624 214.5073Q27.64375 214.5073 26.89375 213.85104Q26.159374 213.1948 26.05 212.11667ZM33.05 210.1323Q33.05 208.60104 33.3625 207.67917Q33.675 206.74167 34.284374 206.24167Q34.909374 205.74167 35.846874 205.74167Q36.534374 205.74167 37.05 206.02292Q37.58125 206.30417 37.925 206.83542Q38.26875 207.35104 38.45625 208.10104Q38.64375 208.85104 38.64375 210.1323Q38.64375 211.64792 38.33125 212.5698Q38.034374 213.49167 37.409374 214.0073Q36.8 214.5073 35.846874 214.5073Q34.6125 214.5073 33.89375 213.61667Q33.05 212.55417 33.05 210.1323ZM34.128124 210.1323Q34.128124 212.24167 34.628124 212.9448Q35.128124 213.64792 35.846874 213.64792Q36.58125 213.64792 37.065624 212.9448Q37.565624 212.24167 37.565624 210.1323Q37.565624 208.0073 37.065624 207.3198Q36.58125 206.61667 35.83125 206.61667Q35.1125 206.61667 34.675 207.22604Q34.128124 208.0073 34.128124 210.1323ZM40.253124 207.83542Q40.253124 206.91354 40.70625 206.27292Q41.175 205.6323 42.05 205.6323Q42.8625 205.6323 43.39375 206.21042Q43.925 206.78854 43.925 207.89792Q43.925 208.99167 43.378124 209.58542Q42.846874 210.16354 42.065624 210.16354Q41.284374 210.16354 40.76875 209.58542Q40.253124 209.0073 40.253124 207.83542ZM42.08125 206.35104Q41.690624 206.35104 41.425 206.6948Q41.175 207.03854 41.175 207.9448Q41.175 208.77292 41.425 209.11667Q41.690624 209.4448 42.08125 209.4448Q42.4875 209.4448 42.7375 209.10104Q43.003124 208.7573 43.003124 207.86667Q43.003124 207.02292 42.7375 206.6948Q42.471874 206.35104 42.08125 206.35104ZM42.08125 214.67917L46.784374 205.6323L47.64375 205.6323L42.95625 214.67917L42.08125 214.67917ZM45.8 212.35104Q45.8 211.42917 46.253124 210.78854Q46.721874 210.14792 47.6125 210.14792Q48.425 210.14792 48.95625 210.72604Q49.4875 211.28854 49.4875 212.41354Q49.4875 213.5073 48.940624 214.10104Q48.409374 214.67917 47.6125 214.67917Q46.846874 214.67917 46.315624 214.10104Q45.8 213.52292 45.8 212.35104ZM47.64375 210.86667Q47.2375 210.86667 46.971874 211.21042Q46.721874 211.55417 46.721874 212.46042Q46.721874 213.27292 46.9875 213.61667Q47.253124 213.96042 47.64375 213.96042Q48.034374 213.96042 48.3 213.61667Q48.565624 213.27292 48.565624 212.36667Q48.565624 211.53854 48.3 211.21042Q48.034374 210.86667 47.64375 210.86667Z" fill-rule="nonzero"/><path fill="#000000" d="M26.1125 145.85625L26.1125 144.84062L31.675 144.84062L31.675 145.66875Q30.8625 146.54375 30.05 147.99687Q29.253124 149.43437 28.815624 150.96562Q28.4875 152.04375 28.409374 153.325L27.315624 153.325Q27.33125 152.30937 27.70625 150.87187Q28.096874 149.43437 28.8 148.10625Q29.51875 146.77812 30.33125 145.85625L26.1125 145.85625ZM33.05 151.075L34.159374 150.98125Q34.284374 151.79375 34.721874 152.2Q35.175 152.60625 35.815624 152.60625Q36.565624 152.60625 37.096874 152.02812Q37.628124 151.45 37.628124 150.5125Q37.628124 149.60625 37.1125 149.09062Q36.6125 148.55937 35.784374 148.55937Q35.284374 148.55937 34.8625 148.79375Q34.45625 149.02812 34.221874 149.3875L33.2375 149.2625L34.065624 144.85625L38.346874 144.85625L38.346874 145.85625L34.909374 145.85625L34.45625 148.16875Q35.221874 147.62187 36.065624 147.62187Q37.190624 147.62187 37.95625 148.40312Q38.7375 149.18437 38.7375 150.41875Q38.7375 151.575 38.065624 152.43437Q37.2375 153.46562 35.815624 153.46562Q34.64375 153.46562 33.89375 152.80937Q33.159374 152.15312 33.05 151.075ZM40.253124 146.79375Q40.253124 145.87187 40.70625 145.23125Q41.175 144.59062 42.05 144.59062Q42.8625 144.59062 43.39375 145.16875Q43.925 145.74687 43.925 146.85625Q43.925 147.95 43.378124 148.54375Q42.846874 149.12187 42.065624 149.12187Q41.284374 149.12187 40.76875 148.54375Q40.253124 147.96562 40.253124 146.79375ZM42.08125 145.30937Q41.690624 145.30937 41.425 145.65312Q41.175 145.99687 41.175 146.90312Q41.175 147.73125 41.425 148.075Q41.690624 148.40312 42.08125 148.40312Q42.4875 148.40312 42.7375 148.05937Q43.003124 147.71562 43.003124 146.825Q43.003124 145.98125 42.7375 145.65312Q42.471874 145.30937 42.08125 145.30937ZM42.08125 153.6375L46.784374 144.59062L47.64375 144.59062L42.95625 153.6375L42.08125 153.6375ZM45.8 151.30937Q45.8 150.3875 46.253124 149.74687Q46.721874 149.10625 47.6125 149.10625Q48.425 149.10625 48.95625 149.68437Q49.4875 150.24687 49.4875 151.37187Q49.4875 152.46562 48.940624 153.05937Q48.409374 153.6375 47.6125 153.6375Q46.846874 153.6375 46.315624 153.05937Q45.8 152.48125 45.8 151.30937ZM47.64375 149.825Q47.2375 149.825 46.971874 150.16875Q46.721874 150.5125 46.721874 151.41875Q46.721874 152.23125 46.9875 152.575Q47.253124 152.91875 47.64375 152.91875Q48.034374 152.91875 48.3 152.575Q48.565624 152.23125 48.565624 151.325Q48.565624 150.49687 48.3 150.16875Q48.034374 149.825 47.64375 149.825Z" fill-rule="nonzero"/><path fill="#000000" d="M23.01875 92.28333L21.971874 92.28333L21.971874 85.56458Q21.58125 85.92396 20.95625 86.29896Q20.346874 86.65833 19.8625 86.83021L19.8625 85.81458Q20.7375 85.39271 21.39375 84.81458Q22.065624 84.22083 22.346874 83.65833L23.01875 83.65833L23.01875 92.28333ZM26.05 88.04896Q26.05 86.51771 26.3625 85.59583Q26.675 84.65833 27.284374 84.15833Q27.909374 83.65833 28.846874 83.65833Q29.534374 83.65833 30.05 83.93958Q30.58125 84.22083 30.925 84.75208Q31.26875 85.26771 31.45625 86.01771Q31.64375 86.76771 31.64375 88.04896Q31.64375 89.56458 31.33125 90.48646Q31.034374 91.40833 30.409374 91.92396Q29.8 92.42396 28.846874 92.42396Q27.6125 92.42396 26.89375 91.53333Q26.05 90.47083 26.05 88.04896ZM27.128124 88.04896Q27.128124 90.15833 27.628124 90.86146Q28.128124 91.56458 28.846874 91.56458Q29.58125 91.56458 30.065624 90.86146Q30.565624 90.15833 30.565624 88.04896Q30.565624 85.92396 30.065624 85.23646Q29.58125 84.53333 28.83125 84.53333Q28.1125 84.53333 27.675 85.14271Q27.128124 85.92396 27.128124 88.04896ZM33.05 88.04896Q33.05 86.51771 33.3625 85.59583Q33.675 84.65833 34.284374 84.15833Q34.909374 83.65833 35.846874 83.65833Q36.534374 83.65833 37.05 83.93958Q37.58125 84.22083 37.925 84.75208Q38.26875 85.26771 38.45625 86.01771Q38.64375 86.76771 38.64375 88.04896Q38.64375 89.56458 38.33125 90.48646Q38.034374 91.40833 37.409374 91.92396Q36.8 92.42396 35.846874 92.42396Q34.6125 92.42396 33.89375 91.53333Q33.05 90.47083 33.05 88.04896ZM34.128124 88.04896Q34.128124 90.15833 34.628124 90.86146Q35.128124 91.56458 35.846874 91.56458Q36.58125 91.56458 37.065624 90.86146Q37.565624 90.15833 37.565624 88.04896Q37.565624 85.92396 37.065624 85.23646Q36.58125 84.53333 35.83125 84.53333Q35.1125 84.53333 34.675 85.14271Q34.128124 85.92396 34.128124 88.04896ZM40.253124 85.75208Q40.253124 84.83021 40.70625 84.18958Q41.175 83.54896 42.05 83.54896Q42.8625 83.54896 43.39375 84.12708Q43.925 84.70521 43.925 85.81458Q43.925 86.90833 43.378124 87.50208Q42.846874 88.08021 42.065624 88.08021Q41.284374 88.08021 40.76875 87.50208Q40.253124 86.92396 40.253124 85.75208ZM42.08125 84.26771Q41.690624 84.26771 41.425 84.61146Q41.175 84.95521 41.175 85.86146Q41.175 86.68958 41.425 87.03333Q41.690624 87.36146 42.08125 87.36146Q42.4875 87.36146 42.7375 87.01771Q43.003124 86.67396 43.003124 85.78333Q43.003124 84.93958 42.7375 84.61146Q42.471874 84.26771 42.08125 84.26771ZM42.08125 92.59583L46.784374 83.54896L47.64375 83.54896L42.95625 92.59583L42.08125 92.59583ZM45.8 90.26771Q45.8 89.34583 46.253124 88.70521Q46.721874 88.06458 47.6125 88.06458Q48.425 88.06458 48.95625 88.64271Q49.4875 89.20521 49.4875 90.33021Q49.4875 91.42396 48.940624 92.01771Q48.409374 92.59583 47.6125 92.59583Q46.846874 92.59583 46.315624 92.01771Q45.8 91.43958 45.8 90.26771ZM47.64375 88.78333Q47.2375 88.78333 46.971874 89.12708Q46.721874 89.47083 46.721874 90.37708Q46.721874 91.18958 46.9875 91.53333Q47.253124 91.87708 47.64375 91.87708Q48.034374 91.87708 48.3 91.53333Q48.565624 91.18958 48.565624 90.28333Q48.565624 89.45521 48.3 89.12708Q48.034374 88.78333 47.64375 88.78333Z" fill-rule="nonzero"/><path fill="#000000" d="M124.9375 349.45L123.03125 343.23126L124.125 343.23126L125.109375 346.825L125.484375 348.15314Q125.515625 348.0594 125.8125 346.8719L126.796875 343.23126L127.875 343.23126L128.8125 346.84064L129.125 348.02814L129.48438 346.825L130.54688 343.23126L131.57812 343.23126L129.625 349.45L128.53125 349.45L127.546875 345.71564L127.296875 344.66876L126.046875 349.45L124.9375 349.45ZM132.59375 349.96564L133.625 350.1219Q133.6875 350.59064 133.98438 350.8094Q134.375 351.10626 135.04688 351.10626Q135.78125 351.10626 136.17188 350.8094Q136.57812 350.5125 136.71875 349.9969Q136.8125 349.66876 136.79688 348.6375Q136.10938 349.45 135.07812 349.45Q133.79688 349.45 133.09375 348.52814Q132.39062 347.59064 132.39062 346.3094Q132.39062 345.41876 132.70312 344.66876Q133.03125 343.90314 133.64062 343.4969Q134.25 343.09064 135.07812 343.09064Q136.1875 343.09064 136.90625 343.98126L136.90625 343.23126L137.875 343.23126L137.875 348.60626Q137.875 350.0594 137.57812 350.66876Q137.28125 351.27814 136.64062 351.6219Q136.0 351.98126 135.0625 351.98126Q133.95312 351.98126 133.26562 351.48126Q132.57812 350.98126 132.59375 349.96564ZM133.46875 346.23126Q133.46875 347.45 133.95312 348.0125Q134.4375 348.575 135.17188 348.575Q135.90625 348.575 136.39062 348.0125Q136.89062 347.45 136.89062 346.2625Q136.89062 345.1219 136.375 344.54376Q135.875 343.96564 135.15625 343.96564Q134.45312 343.96564 133.95312 344.54376Q133.46875 345.10626 133.46875 346.23126ZM139.79688 351.84064L139.79688 343.23126L140.75 343.23126L140.75 344.02814Q141.09375 343.5594 141.51562 343.325Q141.95312 343.09064 142.5625 343.09064Q143.35938 343.09064 143.96875 343.4969Q144.57812 343.90314 144.875 344.65314Q145.1875 345.40314 145.1875 346.29376Q145.1875 347.2469 144.84375 348.0125Q144.51562 348.77814 143.85938 349.1844Q143.20312 349.59064 142.48438 349.59064Q141.95312 349.59064 141.53125 349.3719Q141.10938 349.1375 140.84375 348.8094L140.84375 351.84064L139.79688 351.84064ZM140.75 346.3719Q140.75 347.575 141.23438 348.15314Q141.71875 348.71564 142.40625 348.71564Q143.10938 348.71564 143.60938 348.1219Q144.10938 347.52814 144.10938 346.27814Q144.10938 345.09064 143.625 344.5125Q143.14062 343.91876 142.45312 343.91876Q141.78125 343.91876 141.26562 344.54376Q140.75 345.16876 140.75 346.3719ZM150.875 349.45L150.875 348.52814Q150.14062 349.59064 148.89062 349.59064Q148.34375 349.59064 147.85938 349.3875Q147.39062 349.16876 147.15625 348.85626Q146.92188 348.52814 146.82812 348.0594Q146.76562 347.7625 146.76562 347.075L146.76562 343.23126L147.82812 343.23126L147.82812 346.6844Q147.82812 347.4969 147.89062 347.79376Q147.98438 348.2 148.29688 348.45Q148.625 348.6844 149.10938 348.6844Q149.57812 348.6844 149.98438 348.45Q150.40625 348.2 150.57812 347.77814Q150.76562 347.35626 150.76562 346.5594L150.76562 343.23126L151.8125 343.23126L151.8125 349.45L150.875 349.45Z" fill-rule="nonzero"/><path fill="#000000" d="M235.10417 349.45L233.19792 343.23126L234.29167 343.23126L235.27605 346.825L235.65105 348.15314Q235.6823 348.0594 235.97917 346.8719L236.96355 343.23126L238.04167 343.23126L238.97917 346.84064L239.29167 348.02814L239.65105 346.825L240.71355 343.23126L241.7448 343.23126L239.79167 349.45L238.69792 349.45L237.71355 345.71564L237.46355 344.66876L236.21355 349.45L235.10417 349.45ZM242.76042 349.96564L243.79167 350.1219Q243.85417 350.59064 244.15105 350.8094Q244.54167 351.10626 245.21355 351.10626Q245.94792 351.10626 246.33855 350.8094Q246.7448 350.5125 246.88542 349.9969Q246.97917 349.66876 246.96355 348.6375Q246.27605 349.45 245.2448 349.45Q243.96355 349.45 243.26042 348.52814Q242.5573 347.59064 242.5573 346.3094Q242.5573 345.41876 242.8698 344.66876Q243.19792 343.90314 243.8073 343.4969Q244.41667 343.09064 245.2448 343.09064Q246.35417 343.09064 247.07292 343.98126L247.07292 343.23126L248.04167 343.23126L248.04167 348.60626Q248.04167 350.0594 247.7448 350.66876Q247.44792 351.27814 246.8073 351.6219Q246.16667 351.98126 245.22917 351.98126Q244.1198 351.98126 243.4323 351.48126Q242.7448 350.98126 242.76042 349.96564ZM243.63542 346.23126Q243.63542 347.45 244.1198 348.0125Q244.60417 348.575 245.33855 348.575Q246.07292 348.575 246.5573 348.0125Q247.0573 347.45 247.0573 346.2625Q247.0573 345.1219 246.54167 344.54376Q246.04167 343.96564 245.32292 343.96564Q244.6198 343.96564 244.1198 344.54376Q243.63542 345.10626 243.63542 346.23126ZM249.96355 351.84064L249.96355 343.23126L250.91667 343.23126L250.91667 344.02814Q251.26042 343.5594 251.6823 343.325Q252.1198 343.09064 252.72917 343.09064Q253.52605 343.09064 254.13542 343.4969Q254.7448 343.90314 255.04167 344.65314Q255.35417 345.40314 255.35417 346.29376Q255.35417 347.2469 255.01042 348.0125Q254.6823 348.77814 254.02605 349.1844Q253.3698 349.59064 252.65105 349.59064Q252.1198 349.59064 251.69792 349.3719Q251.27605 349.1375 251.01042 348.8094L251.01042 351.84064L249.96355 351.84064ZM250.91667 346.3719Q250.91667 347.575 251.40105 348.15314Q251.88542 348.71564 252.57292 348.71564Q253.27605 348.71564 253.77605 348.1219Q254.27605 347.52814 254.27605 346.27814Q254.27605 345.09064 253.79167 344.5125Q253.3073 343.91876 252.6198 343.91876Q251.94792 343.91876 251.4323 344.54376Q250.91667 345.16876 250.91667 346.3719ZM261.0417 349.45L261.0417 348.52814Q260.3073 349.59064 259.0573 349.59064Q258.51044 349.59064 258.02606 349.3875Q257.5573 349.16876 257.32294 348.85626Q257.08856 348.52814 256.9948 348.0594Q256.9323 347.7625 256.9323 347.075L256.9323 343.23126L257.9948 343.23126L257.9948 346.6844Q257.9948 347.4969 258.0573 347.79376Q258.15106 348.2 258.46356 348.45Q258.7917 348.6844 259.27606 348.6844Q259.7448 348.6844 260.15106 348.45Q260.57294 348.2 260.7448 347.77814Q260.9323 347.35626 260.9323 346.5594L260.9323 343.23126L261.9792 343.23126L261.9792 349.45L261.0417 349.45ZM263.5417 346.8719L263.5417 345.8094L266.7917 345.8094L266.7917 346.8719L263.5417 346.8719ZM267.96356 349.45L267.96356 340.85626L269.01044 340.85626L269.01044 343.9344Q269.7448 343.09064 270.8698 343.09064Q271.57294 343.09064 272.07294 343.3719Q272.58856 343.6375 272.8073 344.1219Q273.02606 344.59064 273.02606 345.5125L273.02606 349.45L271.9792 349.45L271.9792 345.5125Q271.9792 344.71564 271.63544 344.35626Q271.2917 343.9969 270.6667 343.9969Q270.19794 343.9969 269.77606 344.2469Q269.3698 344.48126 269.1823 344.90314Q269.01044 345.3094 269.01044 346.04376L269.01044 349.45L267.96356 349.45ZM279.02606 348.6844Q278.4323 349.1844 277.88544 349.3875Q277.3542 349.59064 276.7292 349.59064Q275.69794 349.59064 275.15106 349.09064Q274.6042 348.59064 274.6042 347.8094Q274.6042 347.35626 274.8073 346.98126Q275.01044 346.59064 275.3542 346.3719Q275.69794 346.1375 276.1198 346.02814Q276.4167 345.9344 277.0573 345.85626Q278.32294 345.71564 278.9323 345.4969Q278.9323 345.27814 278.9323 345.23126Q278.9323 344.575 278.63544 344.3094Q278.2292 343.96564 277.4323 343.96564Q276.69794 343.96564 276.33856 344.23126Q275.9792 344.48126 275.8073 345.1375L274.77606 344.9969Q274.9167 344.34064 275.2448 343.9344Q275.57294 343.52814 276.1823 343.3094Q276.7917 343.09064 277.58856 343.09064Q278.38544 343.09064 278.88544 343.27814Q279.38544 343.46564 279.6198 343.7469Q279.8542 344.02814 279.94794 344.46564Q279.9948 344.73126 279.9948 345.4344L279.9948 346.84064Q279.9948 348.3094 280.0573 348.7Q280.13544 349.09064 280.33856 349.45L279.2292 349.45Q279.07294 349.1219 279.02606 348.6844ZM278.9323 346.325Q278.3542 346.5594 277.21356 346.73126Q276.5573 346.825 276.2917 346.95Q276.02606 347.0594 275.8698 347.27814Q275.7292 347.4969 275.7292 347.77814Q275.7292 348.2 276.0417 348.48126Q276.3698 348.7625 276.9792 348.7625Q277.58856 348.7625 278.0573 348.4969Q278.5417 348.23126 278.76044 347.7625Q278.9323 347.40314 278.9323 346.71564L278.9323 346.325ZM281.9323 349.45L281.9323 340.85626L282.9948 340.85626L282.9948 349.45L281.9323 349.45Z" fill-rule="nonzero"/><path fill="#000000" d="M360.84897 349.45L358.4896 343.23126L359.59897 343.23126L360.94272 346.95Q361.14584 347.5594 361.33334 348.2Q361.47397 347.71564 361.72397 347.02814L363.1146 343.23126L364.19272 343.23126L361.83334 349.45L360.84897 349.45ZM368.20834 349.45L368.20834 348.52814Q367.47397 349.59064 366.22397 349.59064Q365.6771 349.59064 365.19272 349.3875Q364.72397 349.16876 364.4896 348.85626Q364.25522 348.52814 364.16147 348.0594Q364.09897 347.7625 364.09897 347.075L364.09897 343.23126L365.16147 343.23126L365.16147 346.6844Q365.16147 347.4969 365.22397 347.79376Q365.31772 348.2 365.63022 348.45Q365.95834 348.6844 366.44272 348.6844Q366.91147 348.6844 367.31772 348.45Q367.7396 348.2 367.91147 347.77814Q368.09897 347.35626 368.09897 346.5594L368.09897 343.23126L369.14584 343.23126L369.14584 349.45L368.20834 349.45ZM371.09897 349.45L371.09897 340.85626L372.16147 340.85626L372.16147 349.45L371.09897 349.45ZM374.13022 349.45L374.13022 340.85626L375.19272 340.85626L375.19272 345.7625L377.6771 343.23126L379.0521 343.23126L376.66147 345.52814L379.28647 349.45L377.9896 349.45L375.9271 346.2625L375.19272 346.98126L375.19272 349.45L374.13022 349.45ZM384.19272 348.6844Q383.59897 349.1844 383.0521 349.3875Q382.52084 349.59064 381.89584 349.59064Q380.8646 349.59064 380.31772 349.09064Q379.77084 348.59064 379.77084 347.8094Q379.77084 347.35626 379.97397 346.98126Q380.1771 346.59064 380.52084 346.3719Q380.8646 346.1375 381.28647 346.02814Q381.58334 345.9344 382.22397 345.85626Q383.4896 345.71564 384.09897 345.4969Q384.09897 345.27814 384.09897 345.23126Q384.09897 344.575 383.8021 344.3094Q383.39584 343.96564 382.59897 343.96564Q381.8646 343.96564 381.50522 344.23126Q381.14584 344.48126 380.97397 345.1375L379.94272 344.9969Q380.08334 344.34064 380.41147 343.9344Q380.7396 343.52814 381.34897 343.3094Q381.95834 343.09064 382.75522 343.09064Q383.5521 343.09064 384.0521 343.27814Q384.5521 343.46564 384.78647 343.7469Q385.02084 344.02814 385.1146 344.46564Q385.16147 344.73126 385.16147 345.4344L385.16147 346.84064Q385.16147 348.3094 385.22397 348.7Q385.3021 349.09064 385.50522 349.45L384.39584 349.45Q384.2396 349.1219 384.19272 348.6844ZM384.09897 346.325Q383.52084 346.5594 382.38022 346.73126Q381.72397 346.825 381.45834 346.95Q381.19272 347.0594 381.03647 347.27814Q380.89584 347.4969 380.89584 347.77814Q380.89584 348.2 381.20834 348.48126Q381.53647 348.7625 382.14584 348.7625Q382.75522 348.7625 383.22397 348.4969Q383.70834 348.23126 383.9271 347.7625Q384.09897 347.40314 384.09897 346.71564L384.09897 346.325ZM387.13022 349.45L387.13022 343.23126L388.06772 343.23126L388.06772 344.10626Q388.75522 343.09064 390.0521 343.09064Q390.6146 343.09064 391.08334 343.29376Q391.56772 343.4969 391.8021 343.825Q392.03647 344.15314 392.13022 344.59064Q392.1771 344.8875 392.1771 345.6219L392.1771 349.45L391.13022 349.45L391.13022 345.66876Q391.13022 345.0125 391.00522 344.7Q390.88022 344.3875 390.56772 344.2Q390.25522 343.9969 389.83334 343.9969Q389.16147 343.9969 388.66147 344.4344Q388.1771 344.85626 388.1771 346.04376L388.1771 349.45L387.13022 349.45ZM393.7396 346.34064Q393.7396 344.60626 394.69272 343.77814Q395.4896 343.09064 396.64584 343.09064Q397.9271 343.09064 398.7396 343.9344Q399.56772 344.7625 399.56772 346.2469Q399.56772 347.45 399.20834 348.1375Q398.84897 348.825 398.14584 349.21564Q397.45834 349.59064 396.64584 349.59064Q395.34897 349.59064 394.53647 348.7625Q393.7396 347.91876 393.7396 346.34064ZM394.81772 346.34064Q394.81772 347.52814 395.33334 348.1219Q395.8646 348.71564 396.64584 348.71564Q397.44272 348.71564 397.95834 348.1219Q398.47397 347.52814 398.47397 346.3094Q398.47397 345.15314 397.94272 344.5594Q397.4271 343.96564 396.64584 343.96564Q395.8646 343.96564 395.33334 344.5594Q394.81772 345.1375 394.81772 346.34064Z" fill-rule="nonzero"/><path fill="#000000" d="M486.26562 349.45L485.28125 349.45L485.28125 340.85626L486.34375 340.85626L486.34375 343.91876Q487.01562 343.09064 488.04688 343.09064Q488.625 343.09064 489.125 343.325Q489.64062 343.54376 489.96875 343.96564Q490.3125 344.3875 490.5 344.98126Q490.6875 345.575 490.6875 346.2469Q490.6875 347.84064 489.89062 348.71564Q489.09375 349.59064 488.0 349.59064Q486.89062 349.59064 486.26562 348.66876L486.26562 349.45ZM486.25 346.29376Q486.25 347.40314 486.5625 347.90314Q487.0625 348.71564 487.90625 348.71564Q488.59375 348.71564 489.09375 348.1219Q489.60938 347.52814 489.60938 346.325Q489.60938 345.10626 489.125 344.52814Q488.64062 343.95 487.95312 343.95Q487.26562 343.95 486.75 344.5594Q486.25 345.15314 486.25 346.29376ZM492.26562 349.45L492.26562 340.85626L493.32812 340.85626L493.32812 349.45L492.26562 349.45ZM499.35938 348.6844Q498.76562 349.1844 498.21875 349.3875Q497.6875 349.59064 497.0625 349.59064Q496.03125 349.59064 495.48438 349.09064Q494.9375 348.59064 494.9375 347.8094Q494.9375 347.35626 495.14062 346.98126Q495.34375 346.59064 495.6875 346.3719Q496.03125 346.1375 496.45312 346.02814Q496.75 345.9344 497.39062 345.85626Q498.65625 345.71564 499.26562 345.4969Q499.26562 345.27814 499.26562 345.23126Q499.26562 344.575 498.96875 344.3094Q498.5625 343.96564 497.76562 343.96564Q497.03125 343.96564 496.67188 344.23126Q496.3125 344.48126 496.14062 345.1375L495.10938 344.9969Q495.25 344.34064 495.57812 343.9344Q495.90625 343.52814 496.51562 343.3094Q497.125 343.09064 497.92188 343.09064Q498.71875 343.09064 499.21875 343.27814Q499.71875 343.46564 499.95312 343.7469Q500.1875 344.02814 500.28125 344.46564Q500.32812 344.73126 500.32812 345.4344L500.32812 346.84064Q500.32812 348.3094 500.39062 348.7Q500.46875 349.09064 500.67188 349.45L499.5625 349.45Q499.40625 349.1219 499.35938 348.6844ZM499.26562 346.325Q498.6875 346.5594 497.54688 346.73126Q496.89062 346.825 496.625 346.95Q496.35938 347.0594 496.20312 347.27814Q496.0625 347.4969 496.0625 347.77814Q496.0625 348.2 496.375 348.48126Q496.70312 348.7625 497.3125 348.7625Q497.92188 348.7625 498.39062 348.4969Q498.875 348.23126 499.09375 347.7625Q499.26562 347.40314 499.26562 346.71564L499.26562 346.325ZM506.32812 349.45L506.32812 348.66876Q505.73438 349.59064 504.59375 349.59064Q503.84375 349.59064 503.21875 349.1844Q502.59375 348.7625 502.25 348.02814Q501.90625 347.29376 501.90625 346.34064Q501.90625 345.41876 502.21875 344.65314Q502.53125 343.8875 503.15625 343.4969Q503.78125 343.09064 504.54688 343.09064Q505.10938 343.09064 505.54688 343.325Q505.98438 343.5594 506.26562 343.9344L506.26562 340.85626L507.3125 340.85626L507.3125 349.45L506.32812 349.45ZM503.0 346.34064Q503.0 347.54376 503.5 348.1375Q504.0 348.71564 504.6875 348.71564Q505.375 348.71564 505.85938 348.15314Q506.34375 347.59064 506.34375 346.4344Q506.34375 345.15314 505.84375 344.5594Q505.35938 343.96564 504.64062 343.96564Q503.9375 343.96564 503.46875 344.54376Q503.0 345.10626 503.0 346.34064ZM513.5469 347.45L514.6406 347.575Q514.3906 348.52814 513.6875 349.0594Q512.9844 349.59064 511.90625 349.59064Q510.54688 349.59064 509.73438 348.7469Q508.9375 347.90314 508.9375 346.3875Q508.9375 344.825 509.75 343.96564Q510.5625 343.09064 511.84375 343.09064Q513.09375 343.09064 513.875 343.9344Q514.6719 344.77814 514.6719 346.325Q514.6719 346.41876 514.6719 346.60626L510.03125 346.60626Q510.09375 347.6375 510.60938 348.1844Q511.125 348.71564 511.90625 348.71564Q512.4844 348.71564 512.8906 348.41876Q513.3125 348.10626 513.5469 347.45ZM510.09375 345.7469L513.5625 345.7469Q513.5 344.95 513.1719 344.5594Q512.65625 343.95 511.85938 343.95Q511.125 343.95 510.625 344.4344Q510.14062 344.91876 510.09375 345.7469Z" fill-rule="nonzero"/><path fill="#ff6d01" d="M206.0 56.916668C206.0 56.364384 206.44771 55.916668 207.0 55.916668L217.0 55.916668C217.55229 55.916668 218.0 56.364384 218.0 56.916668L218.0 66.916664C218.0 67.46895 217.55229 67.916664 217.0 67.916664L207.0 67.916664C206.44771 67.916664 206.0 67.46895 206.0 66.916664Z" fill-rule="nonzero"/><path fill="#1a1a1a" d="M232.5625 57.322914L233.70312 57.322914L233.70312 62.291664Q233.70312 63.58854 233.40625 64.354164Q233.10938 65.104164 232.34375 65.58854Q231.57812 66.05729 230.34375 66.05729Q229.14062 66.05729 228.35938 65.65104Q227.59375 65.229164 227.26562 64.447914Q226.9375 63.65104 226.9375 62.291664L226.9375 57.322914L228.07812 57.322914L228.07812 62.27604Q228.07812 63.40104 228.28125 63.93229Q228.5 64.46354 229.0 64.760414Q229.51562 65.041664 230.25 65.041664Q231.5 65.041664 232.03125 64.479164Q232.5625 63.90104 232.5625 62.27604L232.5625 57.322914ZM235.375 64.05729L236.40625 63.90104Q236.5 64.52604 236.89062 64.854164Q237.29688 65.18229 238.03125 65.18229Q238.75 65.18229 239.09375 64.90104Q239.45312 64.604164 239.45312 64.197914Q239.45312 63.83854 239.14062 63.635414Q238.92188 63.49479 238.0625 63.27604Q236.90625 62.979164 236.45312 62.77604Q236.01562 62.55729 235.78125 62.18229Q235.54688 61.80729 235.54688 61.33854Q235.54688 60.93229 235.73438 60.572914Q235.92188 60.21354 236.25 59.979164Q236.5 59.80729 236.92188 59.68229Q237.34375 59.55729 237.84375 59.55729Q238.5625 59.55729 239.10938 59.77604Q239.67188 59.979164 239.9375 60.33854Q240.20312 60.697914 240.29688 61.291664L239.26562 61.43229Q239.20312 60.96354 238.85938 60.697914Q238.53125 60.416664 237.90625 60.416664Q237.1875 60.416664 236.875 60.666664Q236.5625 60.90104 236.5625 61.229164Q236.5625 61.43229 236.6875 61.58854Q236.82812 61.760414 237.09375 61.86979Q237.25 61.93229 238.03125 62.135414Q239.15625 62.447914 239.59375 62.635414Q240.03125 62.822914 240.28125 63.18229Q240.53125 63.541664 240.53125 64.08854Q240.53125 64.61979 240.21875 65.08854Q239.92188 65.541664 239.34375 65.80729Q238.76562 66.05729 238.03125 66.05729Q236.8125 66.05729 236.17188 65.55729Q235.54688 65.041664 235.375 64.05729ZM247.04688 63.916664L248.14062 64.041664Q247.89062 64.99479 247.1875 65.52604Q246.48438 66.05729 245.40625 66.05729Q244.04688 66.05729 243.23438 65.21354Q242.4375 64.36979 242.4375 62.854164Q242.4375 61.291664 243.25 60.43229Q244.0625 59.55729 245.34375 59.55729Q246.59375 59.55729 247.375 60.40104Q248.17188 61.24479 248.17188 62.791664Q248.17188 62.885414 248.17188 63.072914L243.53125 63.072914Q243.59375 64.104164 244.10938 64.65104Q244.625 65.18229 245.40625 65.18229Q245.98438 65.18229 246.39062 64.885414Q246.8125 64.572914 247.04688 63.916664ZM243.59375 62.21354L247.0625 62.21354Q247.0 61.416664 246.67188 61.02604Q246.15625 60.416664 245.35938 60.416664Q244.625 60.416664 244.125 60.90104Q243.64062 61.385414 243.59375 62.21354ZM249.78125 65.916664L249.78125 59.697914L250.73438 59.697914L250.73438 60.635414Q251.09375 59.979164 251.39062 59.77604Q251.70312 59.55729 252.07812 59.55729Q252.60938 59.55729 253.15625 59.885414L252.79688 60.86979Q252.40625 60.635414 252.03125 60.635414Q251.67188 60.635414 251.39062 60.854164Q251.125 61.05729 251.01562 61.43229Q250.82812 61.99479 250.82812 62.65104L250.82812 65.916664L249.78125 65.916664Z" fill-rule="nonzero"/><path fill="#4285f4" d="M269.0 56.916668C269.0 56.364384 269.44772 55.916668 270.0 55.916668L280.0 55.916668C280.55228 55.916668 281.0 56.364384 281.0 56.916668L281.0 66.916664C281.0 67.46895 280.55228 67.916664 280.0 67.916664L270.0 67.916664C269.44772 67.916664 269.0 67.46895 269.0 66.916664Z" fill-rule="nonzero"/><path fill="#1a1a1a" d="M289.875 65.916664L289.875 57.322914L291.01562 57.322914L291.01562 64.90104L295.25 64.90104L295.25 65.916664L289.875 65.916664ZM296.79688 58.541664L296.79688 57.322914L297.85938 57.322914L297.85938 58.541664L296.79688 58.541664ZM296.79688 65.916664L296.79688 59.697914L297.85938 59.697914L297.85938 65.916664L296.79688 65.916664ZM300.76562 65.916664L299.78125 65.916664L299.78125 57.322914L300.84375 57.322914L300.84375 60.385414Q301.51562 59.55729 302.54688 59.55729Q303.125 59.55729 303.625 59.791664Q304.14062 60.010414 304.46875 60.43229Q304.8125 60.854164 305.0 61.447914Q305.1875 62.041664 305.1875 62.71354Q305.1875 64.30729 304.39062 65.18229Q303.59375 66.05729 302.5 66.05729Q301.39062 66.05729 300.76562 65.135414L300.76562 65.916664ZM300.75 62.760414Q300.75 63.86979 301.0625 64.36979Q301.5625 65.18229 302.40625 65.18229Q303.09375 65.18229 303.59375 64.58854Q304.10938 63.99479 304.10938 62.791664Q304.10938 61.572914 303.625 60.99479Q303.14062 60.416664 302.45312 60.416664Q301.76562 60.416664 301.25 61.02604Q300.75 61.61979 300.75 62.760414ZM306.78125 65.916664L306.78125 59.697914L307.73438 59.697914L307.73438 60.635414Q308.09375 59.979164 308.39062 59.77604Q308.70312 59.55729 309.07812 59.55729Q309.60938 59.55729 310.15625 59.885414L309.79688 60.86979Q309.40625 60.635414 309.03125 60.635414Q308.67188 60.635414 308.39062 60.854164Q308.125 61.05729 308.01562 61.43229Q307.82812 61.99479 307.82812 62.65104L307.82812 65.916664L306.78125 65.916664ZM314.85938 65.15104Q314.26562 65.65104 313.71875 65.854164Q313.1875 66.05729 312.5625 66.05729Q311.53125 66.05729 310.98438 65.55729Q310.4375 65.05729 310.4375 64.27604Q310.4375 63.822914 310.64062 63.447914Q310.84375 63.05729 311.1875 62.83854Q311.53125 62.604164 311.95312 62.49479Q312.25 62.40104 312.89062 62.322914Q314.15625 62.18229 314.76562 61.96354Q314.76562 61.74479 314.76562 61.697914Q314.76562 61.041664 314.46875 60.77604Q314.0625 60.43229 313.26562 60.43229Q312.53125 60.43229 312.17188 60.697914Q311.8125 60.947914 311.64062 61.604164L310.60938 61.46354Q310.75 60.80729 311.07812 60.40104Q311.40625 59.99479 312.01562 59.77604Q312.625 59.55729 313.42188 59.55729Q314.21875 59.55729 314.71875 59.74479Q315.21875 59.93229 315.45312 60.21354Q315.6875 60.49479 315.78125 60.93229Q315.82812 61.197914 315.82812 61.90104L315.82812 63.30729Q315.82812 64.77604 315.89062 65.166664Q315.96875 65.55729 316.17188 65.916664L315.0625 65.916664Q314.90625 65.58854 314.85938 65.15104ZM314.76562 62.791664Q314.1875 63.02604 313.04688 63.197914Q312.39062 63.291664 312.125 63.416664Q311.85938 63.52604 311.70312 63.74479Q311.5625 63.96354 311.5625 64.24479Q311.5625 64.666664 311.875 64.947914Q312.20312 65.229164 312.8125 65.229164Q313.42188 65.229164 313.89062 64.96354Q314.375 64.697914 314.59375 64.229164Q314.76562 63.86979 314.76562 63.18229L314.76562 62.791664ZM317.78125 65.916664L317.78125 59.697914L318.73438 59.697914L318.73438 60.635414Q319.09375 59.979164 319.39062 59.77604Q319.70312 59.55729 320.07812 59.55729Q320.60938 59.55729 321.15625 59.885414L320.79688 60.86979Q320.40625 60.635414 320.03125 60.635414Q319.67188 60.635414 319.39062 60.854164Q319.125 61.05729 319.01562 61.43229Q318.82812 61.99479 318.82812 62.65104L318.82812 65.916664L317.78125 65.916664ZM321.75 68.30729L321.625 67.322914Q321.96875 67.416664 322.23438 67.416664Q322.57812 67.416664 322.78125 67.291664Q323.0 67.18229 323.14062 66.979164Q323.23438 66.80729 323.46875 66.18229Q323.48438 66.104164 323.5625 65.93229L321.1875 59.697914L322.32812 59.697914L323.625 63.291664Q323.875 63.979164 324.07812 64.74479Q324.26562 64.010414 324.51562 63.322914L325.84375 59.697914L326.89062 59.697914L324.53125 66.02604Q324.14062 67.041664 323.9375 67.43229Q323.65625 67.96354 323.28125 68.197914Q322.92188 68.447914 322.42188 68.447914Q322.125 68.447914 321.75 68.30729Z" fill-rule="nonzero"/><path fill="#34a853" d="M342.0 56.916668C342.0 56.364384 342.44772 55.916668 343.0 55.916668L353.0 55.916668C353.55228 55.916668 354.0 56.364384 354.0 56.916668L354.0 66.916664C354.0 67.46895 353.55228 67.916664 353.0 67.916664L343.0 67.916664C342.44772 67.916664 342.0 67.46895 342.0 66.916664Z" fill-rule="nonzero"/><path fill="#1a1a1a" d="M362.92188 65.916664L362.92188 57.322914L365.89062 57.322914Q366.89062 57.322914 367.42188 57.447914Q368.15625 57.61979 368.67188 58.05729Q369.35938 58.635414 369.6875 59.541664Q370.03125 60.43229 370.03125 61.572914Q370.03125 62.55729 369.79688 63.30729Q369.57812 64.05729 369.21875 64.55729Q368.85938 65.05729 368.42188 65.33854Q368.0 65.61979 367.40625 65.77604Q366.8125 65.916664 366.03125 65.916664L362.92188 65.916664ZM364.0625 64.90104L365.89062 64.90104Q366.75 64.90104 367.23438 64.74479Q367.71875 64.58854 368.0 64.291664Q368.40625 63.90104 368.625 63.21354Q368.85938 62.52604 368.85938 61.55729Q368.85938 60.21354 368.40625 59.49479Q367.96875 58.760414 367.34375 58.510414Q366.875 58.33854 365.875 58.33854L364.0625 58.33854L364.0625 64.90104ZM371.78125 65.916664L371.78125 59.697914L372.73438 59.697914L372.73438 60.635414Q373.09375 59.979164 373.39062 59.77604Q373.70312 59.55729 374.07812 59.55729Q374.60938 59.55729 375.15625 59.885414L374.79688 60.86979Q374.40625 60.635414 374.03125 60.635414Q373.67188 60.635414 373.39062 60.854164Q373.125 61.05729 373.01562 61.43229Q372.82812 61.99479 372.82812 62.65104L372.82812 65.916664L371.78125 65.916664ZM375.79688 58.541664L375.79688 57.322914L376.85938 57.322914L376.85938 58.541664L375.79688 58.541664ZM375.79688 65.916664L375.79688 59.697914L376.85938 59.697914L376.85938 65.916664L375.79688 65.916664ZM380.51562 65.916664L378.15625 59.697914L379.26562 59.697914L380.60938 63.416664Q380.8125 64.02604 381.0 64.666664Q381.14062 64.18229 381.39062 63.49479L382.78125 59.697914L383.85938 59.697914L381.5 65.916664L380.51562 65.916664ZM388.04688 63.916664L389.14062 64.041664Q388.89062 64.99479 388.1875 65.52604Q387.48438 66.05729 386.40625 66.05729Q385.04688 66.05729 384.23438 65.21354Q383.4375 64.36979 383.4375 62.854164Q383.4375 61.291664 384.25 60.43229Q385.0625 59.55729 386.34375 59.55729Q387.59375 59.55729 388.375 60.40104Q389.17188 61.24479 389.17188 62.791664Q389.17188 62.885414 389.17188 63.072914L384.53125 63.072914Q384.59375 64.104164 385.10938 64.65104Q385.625 65.18229 386.40625 65.18229Q386.98438 65.18229 387.39062 64.885414Q387.8125 64.572914 388.04688 63.916664ZM384.59375 62.21354L388.0625 62.21354Q388.0 61.416664 387.67188 61.02604Q387.15625 60.416664 386.35938 60.416664Q385.625 60.416664 385.125 60.90104Q384.64062 61.385414 384.59375 62.21354ZM390.78125 65.916664L390.78125 59.697914L391.73438 59.697914L391.73438 60.635414Q392.09375 59.979164 392.39062 59.77604Q392.70312 59.55729 393.07812 59.55729Q393.60938 59.55729 394.15625 59.885414L393.79688 60.86979Q393.40625 60.635414 393.03125 60.635414Q392.67188 60.635414 392.39062 60.854164Q392.125 61.05729 392.01562 61.43229Q391.82812 61.99479 391.82812 62.65104L391.82812 65.916664L390.78125 65.916664Z" fill-rule="nonzero"/><path fill="#757575" d="M22.596874 37.55L18.8 23.2375L20.7375 23.2375L22.909374 32.6125Q23.26875 34.096874 23.51875 35.55Q24.065624 33.253124 24.159374 32.89375L26.89375 23.2375L29.175 23.2375L31.221874 30.471874Q32.003124 33.175 32.346874 35.55Q32.6125 34.190624 33.05 32.425L35.3 23.2375L37.20625 23.2375L33.284374 37.55L31.45625 37.55L28.440624 26.64375Q28.05 25.26875 27.9875 24.95625Q27.753124 25.940624 27.565624 26.64375L24.534374 37.55L22.596874 37.55ZM38.8625 37.55L38.8625 23.2375L40.628124 23.2375L40.628124 28.3625Q41.8625 26.940624 43.7375 26.940624Q44.878124 26.940624 45.721874 27.39375Q46.58125 27.846874 46.940624 28.659374Q47.315624 29.45625 47.315624 30.971874L47.315624 37.55L45.565624 37.55L45.565624 30.971874Q45.565624 29.659374 44.9875 29.065624Q44.409374 28.45625 43.378124 28.45625Q42.596874 28.45625 41.89375 28.8625Q41.20625 29.26875 40.909374 29.971874Q40.628124 30.659374 40.628124 31.878124L40.628124 37.55L38.8625 37.55ZM55.971874 34.20625L57.784374 34.440624Q57.3625 36.01875 56.190624 36.909374Q55.034374 37.784374 53.221874 37.784374Q50.95625 37.784374 49.6125 36.39375Q48.284374 34.9875 48.284374 32.45625Q48.284374 29.83125 49.628124 28.39375Q50.971874 26.940624 53.128124 26.940624Q55.20625 26.940624 56.51875 28.3625Q57.846874 29.76875 57.846874 32.346874Q57.846874 32.503124 57.83125 32.815624L50.096874 32.815624Q50.190624 34.51875 51.065624 35.425Q51.940624 36.33125 53.2375 36.33125Q54.20625 36.33125 54.878124 35.83125Q55.565624 35.315624 55.971874 34.20625ZM50.190624 31.3625L55.9875 31.3625Q55.878124 30.065624 55.33125 29.409374Q54.4875 28.39375 53.14375 28.39375Q51.940624 28.39375 51.1125 29.20625Q50.284374 30.003124 50.190624 31.3625ZM59.846874 37.55L59.846874 27.175L61.425 27.175L61.425 28.753124Q62.034374 27.64375 62.55 27.3Q63.065624 26.940624 63.675 26.940624Q64.56563 26.940624 65.4875 27.503124L64.87813 29.14375Q64.2375 28.753124 63.596874 28.753124Q63.01875 28.753124 62.55 29.1125Q62.096874 29.45625 61.89375 30.065624Q61.6125 31.003124 61.6125 32.1125L61.6125 37.55L59.846874 37.55ZM73.97188 34.20625L75.78438 34.440624Q75.3625 36.01875 74.19063 36.909374Q73.03438 37.784374 71.22188 37.784374Q68.95625 37.784374 67.6125 36.39375Q66.28438 34.9875 66.28438 32.45625Q66.28438 29.83125 67.62813 28.39375Q68.97188 26.940624 71.12813 26.940624Q73.20625 26.940624 74.51875 28.3625Q75.84688 29.76875 75.84688 32.346874Q75.84688 32.503124 75.83125 32.815624L68.09688 32.815624Q68.19063 34.51875 69.06563 35.425Q69.94063 36.33125 71.2375 36.33125Q72.20625 36.33125 72.87813 35.83125Q73.56563 35.315624 73.97188 34.20625ZM68.19063 31.3625L73.9875 31.3625Q73.87813 30.065624 73.33125 29.409374Q72.4875 28.39375 71.14375 28.39375Q69.94063 28.39375 69.1125 29.20625Q68.28438 30.003124 68.19063 31.3625ZM90.64375 33.753124L92.3625 33.971874Q92.08125 35.76875 90.90938 36.784374Q89.75313 37.784374 88.05 37.784374Q85.925 37.784374 84.62813 36.39375Q83.33125 35.003124 83.33125 32.409374Q83.33125 30.721874 83.87813 29.471874Q84.44063 28.20625 85.58125 27.58125Q86.72188 26.940624 88.06563 26.940624Q89.75313 26.940624 90.81563 27.8Q91.89375 28.659374 92.20625 30.221874L90.4875 30.4875Q90.25313 29.440624 89.62813 28.925Q89.00313 28.39375 88.12813 28.39375Q86.8 28.39375 85.97188 29.346874Q85.14375 30.3 85.14375 32.346874Q85.14375 34.440624 85.94063 35.39375Q86.7375 36.33125 88.03438 36.33125Q89.06563 36.33125 89.75313 35.70625Q90.45625 35.065624 90.64375 33.753124ZM93.22188 32.3625Q93.22188 29.4875 94.81563 28.096874Q96.15938 26.940624 98.08125 26.940624Q100.22188 26.940624 101.56563 28.346874Q102.925 29.753124 102.925 32.221874Q102.925 34.221874 102.33125 35.378124Q101.7375 36.51875 100.58125 37.159374Q99.44063 37.784374 98.08125 37.784374Q95.89375 37.784374 94.55 36.39375Q93.22188 34.9875 93.22188 32.3625ZM95.01875 32.3625Q95.01875 34.3625 95.87813 35.346874Q96.75313 36.33125 98.08125 36.33125Q99.39375 36.33125 100.25313 35.346874Q101.12813 34.346874 101.12813 32.3Q101.12813 30.378124 100.25313 29.39375Q99.37813 28.39375 98.08125 28.39375Q96.75313 28.39375 95.87813 29.39375Q95.01875 30.378124 95.01875 32.3625ZM104.8625 37.55L104.8625 27.175L106.44063 27.175L106.44063 28.628124Q106.925 27.878124 107.7375 27.409374Q108.55 26.940624 109.58125 26.940624Q110.7375 26.940624 111.47188 27.425Q112.20625 27.89375 112.51875 28.753124Q113.75313 26.940624 115.72188 26.940624Q117.26875 26.940624 118.09688 27.8Q118.925 28.659374 118.925 30.425L118.925 37.55L117.175 37.55L117.175 31.01875Q117.175 29.95625 117.00313 29.503124Q116.83125 29.034374 116.37813 28.753124Q115.94063 28.471874 115.33125 28.471874Q114.2375 28.471874 113.50313 29.20625Q112.78438 29.925 112.78438 31.51875L112.78438 37.55L111.03438 37.55L111.03438 30.815624Q111.03438 29.64375 110.59688 29.065624Q110.175 28.471874 109.19063 28.471874Q108.45625 28.471874 107.81563 28.8625Q107.19063 29.253124 106.90938 30.003124Q106.62813 30.753124 106.62813 32.175L106.62813 37.55L104.8625 37.55ZM120.8625 41.51875L120.8625 27.175L122.47188 27.175L122.47188 28.51875Q123.03438 27.7375 123.7375 27.346874Q124.45625 26.940624 125.47188 26.940624Q126.8 26.940624 127.81563 27.628124Q128.83125 28.315624 129.34688 29.565624Q129.87813 30.8 129.87813 32.284374Q129.87813 33.878124 129.3 35.159374Q128.7375 36.425 127.64375 37.1125Q126.55 37.784374 125.34688 37.784374Q124.47188 37.784374 123.76875 37.409374Q123.08125 37.034374 122.62813 36.471874L122.62813 41.51875L120.8625 41.51875ZM122.45625 32.425Q122.45625 34.425 123.26875 35.378124Q124.08125 36.33125 125.2375 36.33125Q126.40938 36.33125 127.2375 35.346874Q128.08125 34.3625 128.08125 32.26875Q128.08125 30.3 127.25313 29.315624Q126.44063 28.315624 125.31563 28.315624Q124.19063 28.315624 123.31563 29.378124Q122.45625 30.425 122.45625 32.425ZM131.83125 37.55L131.83125 23.2375L133.58125 23.2375L133.58125 37.55L131.83125 37.55ZM142.97188 34.20625L144.78438 34.440624Q144.3625 36.01875 143.19063 36.909374Q142.03438 37.784374 140.22188 37.784374Q137.95625 37.784374 136.6125 36.39375Q135.28438 34.9875 135.28438 32.45625Q135.28438 29.83125 136.62813 28.39375Q137.97188 26.940624 140.12813 26.940624Q142.20625 26.940624 143.51875 28.3625Q144.84688 29.76875 144.84688 32.346874Q144.84688 32.503124 144.83125 32.815624L137.09688 32.815624Q137.19063 34.51875 138.06563 35.425Q138.94063 36.33125 140.2375 36.33125Q141.20625 36.33125 141.87813 35.83125Q142.56563 35.315624 142.97188 34.20625ZM137.19063 31.3625L142.9875 31.3625Q142.87813 30.065624 142.33125 29.409374Q141.4875 28.39375 140.14375 28.39375Q138.94063 28.39375 138.1125 29.20625Q137.28438 30.003124 137.19063 31.3625ZM145.69063 37.55L149.4875 32.159374L145.9875 27.175L148.175 27.175L149.76875 29.6125Q150.22188 30.3 150.4875 30.76875Q150.925 30.128124 151.28438 29.628124L153.03438 27.175L155.12813 27.175L151.55 32.065624L155.40938 37.55L153.25313 37.55L151.1125 34.33125L150.55 33.45625L147.83125 37.55L145.69063 37.55ZM155.87813 25.253124L155.87813 23.2375L157.64375 23.2375L157.64375 25.253124L155.87813 25.253124ZM155.87813 37.55L155.87813 27.175L157.64375 27.175L157.64375 37.55L155.87813 37.55ZM163.70625 35.971874L163.95625 37.534374Q163.22188 37.690624 162.62813 37.690624Q161.675 37.690624 161.14375 37.39375Q160.62813 37.08125 160.40938 36.596874Q160.19063 36.096874 160.19063 34.51875L160.19063 28.55L158.90938 28.55L158.90938 27.175L160.19063 27.175L160.19063 24.6125L161.94063 23.55L161.94063 27.175L163.70625 27.175L163.70625 28.55L161.94063 28.55L161.94063 34.6125Q161.94063 35.3625 162.03438 35.58125Q162.12813 35.784374 162.33125 35.925Q162.55 36.05 162.94063 36.05Q163.22188 36.05 163.70625 35.971874ZM165.78438 41.55L165.59688 39.89375Q166.175 40.05 166.59688 40.05Q167.19063 40.05 167.53438 39.846874Q167.89375 39.659374 168.1125 39.315624Q168.28438 39.05 168.65938 38.003124Q168.70625 37.846874 168.81563 37.565624L164.87813 27.175L166.76875 27.175L168.925 33.190624Q169.34688 34.33125 169.675 35.58125Q169.9875 34.378124 170.39375 33.221874L172.6125 27.175L174.37813 27.175L170.425 37.721874Q169.8 39.440624 169.44063 40.08125Q168.97188 40.95625 168.3625 41.346874Q167.76875 41.753124 166.925 41.753124Q166.40938 41.753124 165.78438 41.55ZM181.83125 37.55L181.83125 23.2375L183.58125 23.2375L183.58125 37.55L181.83125 37.55ZM185.87813 25.253124L185.87813 23.2375L187.64375 23.2375L187.64375 25.253124L185.87813 25.253124ZM185.87813 37.55L185.87813 27.175L187.64375 27.175L187.64375 37.55L185.87813 37.55ZM192.75313 37.55L188.8 27.175L190.65938 27.175L192.89375 33.39375Q193.25313 34.39375 193.55 35.471874Q193.78438 34.659374 194.20625 33.503124L196.50313 27.175L198.31563 27.175L194.39375 37.55L192.75313 37.55ZM205.97188 34.20625L207.78438 34.440624Q207.3625 36.01875 206.19063 36.909374Q205.03438 37.784374 203.22188 37.784374Q200.95625 37.784374 199.6125 36.39375Q198.28438 34.9875 198.28438 32.45625Q198.28438 29.83125 199.62813 28.39375Q200.97188 26.940624 203.12813 26.940624Q205.20625 26.940624 206.51875 28.3625Q207.84688 29.76875 207.84688 32.346874Q207.84688 32.503124 207.83125 32.815624L200.09688 32.815624Q200.19063 34.51875 201.06563 35.425Q201.94063 36.33125 203.2375 36.33125Q204.20625 36.33125 204.87813 35.83125Q205.56563 35.315624 205.97188 34.20625ZM200.19063 31.3625L205.9875 31.3625Q205.87813 30.065624 205.33125 29.409374Q204.4875 28.39375 203.14375 28.39375Q201.94063 28.39375 201.1125 29.20625Q200.28438 30.003124 200.19063 31.3625ZM209.15938 34.45625L210.90938 34.175Q211.05 35.221874 211.72188 35.784374Q212.39375 36.33125 213.59688 36.33125Q214.8 36.33125 215.37813 35.846874Q215.97188 35.346874 215.97188 34.690624Q215.97188 34.096874 215.45625 33.753124Q215.09688 33.51875 213.65938 33.159374Q211.72188 32.659374 210.97188 32.315624Q210.2375 31.95625 209.84688 31.33125Q209.45625 30.690624 209.45625 29.925Q209.45625 29.2375 209.76875 28.64375Q210.09688 28.05 210.64375 27.659374Q211.05 27.3625 211.75313 27.159374Q212.47188 26.940624 213.28438 26.940624Q214.50313 26.940624 215.425 27.3Q216.34688 27.64375 216.78438 28.253124Q217.22188 28.846874 217.39375 29.846874L215.675 30.08125Q215.55 29.284374 214.9875 28.846874Q214.425 28.39375 213.40938 28.39375Q212.19063 28.39375 211.675 28.8Q211.15938 29.190624 211.15938 29.721874Q211.15938 30.065624 211.37813 30.346874Q211.58125 30.628124 212.05 30.815624Q212.31563 30.909374 213.59688 31.253124Q215.47188 31.753124 216.20625 32.08125Q216.94063 32.39375 217.3625 33.003124Q217.78438 33.596874 217.78438 34.503124Q217.78438 35.378124 217.26875 36.159374Q216.75313 36.940624 215.78438 37.3625Q214.81563 37.784374 213.59688 37.784374Q211.58125 37.784374 210.51875 36.940624Q209.45625 36.096874 209.15938 34.45625ZM220.3625 29.175L220.3625 27.175L222.3625 27.175L222.3625 29.175L220.3625 29.175ZM220.3625 37.55L220.3625 35.55L222.3625 35.55L222.3625 37.55L220.3625 37.55Z" fill-rule="nonzero"/></svg>